<svg xmlns="http://www.w3.org/2000/svg" xmlns:xlink="http://www.w3.org/1999/xlink" width="300" height="300" viewBox="0 0 300 300" fill="none"><defs><rect id="path_0" x="0" y="0" width="300" height="300" /></defs><g opacity="1" transform="translate(0 0)  rotate(0 150 150)"><mask id="bg-mask-0" fill="white"><use xlink:href="#path_0"></use></mask><g mask="url(#bg-mask-0)" ><g opacity="1" transform="translate(8 13)  rotate(0 151.39151319407011 129.82606909609592)"><g opacity="1" transform="translate(0 24.94903819219175)  rotate(0 117 117.35155000000002)"><path id="路径 1" fill-rule="evenodd" style="fill:#FAD841" transform="translate(0 0)  rotate(0 117 117.35155000000002)" opacity="1" d="M144.28,218.25C183,194 197,182.5 215.5,158.5C229.5,138 234,109.5 234,90C234,90 230.48,53.91 209.11,31.22L194.34,17.16C194.34,17.16 183.09,9.66 181.97,9C171.09,3 158.34,0 143.72,0C107.63,0 81.47,14.81 65.25,44.44C60.94,52.31 56.77,61.69 52.73,72.56C46.17,90.28 38.39,105.19 29.39,117.28C18.52,131.91 11.91,141.23 9.56,145.27C3.19,156.33 0,167.06 0,177.47C0,197.25 8.02,212.16 24.05,222.19C37.36,230.53 54.52,234.7 75.52,234.7C99.23,234.7 122.16,229.22 144.28,218.25Z " /><path id="减去顶层" fill-rule="evenodd" style="fill:#FAAC28" transform="translate(18.344558715820284 100.70962524414062)  rotate(0 107.61695861816406 66.99518585205078)" opacity="1" d="M-2.89969e-06 117.436C45.0509 123.857 96.8828 112.085 142.596 81.1394C175.152 59.1009 199.832 30.5687 215.234 2.10472e-05C213.837 18.3048 208.759 40.7964 197.154 57.7904C178.654 81.7904 164.654 93.2904 125.934 117.54C103.814 128.51 80.8838 133.99 57.1738 133.99C36.1738 133.99 19.0138 129.82 5.70379 121.48C3.6741 120.21 1.77283 118.862 -2.89969e-06 117.436Z " /></g><g opacity="1" transform="translate(174.04000000000008 8.359038192191747)  rotate(168 52.643685981308415 118.34854102552077)"><path id="路径 1" fill-rule="evenodd" style="fill:#10AA50" transform="translate(0 0)  rotate(0 52.643685981308415 103.7989986200425)" opacity="1" d="M58.73,14.07C56.02,9.55 53.62,4.85 51.54,0C51.2,4.85 50.56,7.9 46.44,11.57C38.18,18.95 3.07,47.57 0.12,109.55C-2.63,167.33 42.58,202.96 48.55,206.65C53.14,208.91 58.74,206.69 61.46,204.62C83.26,189.65 113.03,149.76 103.44,93.4L103.41,93.4C91.05,38.85 65.3,24.33 58.73,14.07Z " /><path id="路径 2" fill-rule="evenodd" style="fill:#B8C4C2" transform="translate(48.63171533479664 175.98948008049126)  rotate(0 6.541969661160867 29.413602085268888)" opacity="1" d="M0,30.79C0,30.79 1.9,44.4 3.23,58.83L7.94,58.83C9.07,48.67 10.78,38.59 13.08,28.63C6.98,25.63 5.08,12.55 4.84,0C3.7,14.3 2.89,22.61 0,30.79Z " /><path id="路径 2" fill-rule="evenodd" style="fill:#B8C4C2" transform="translate(41.491724158412 176.04832752418076)  rotate(0 15.438698973744115 30.324377263430385)" opacity="1" d="M23.01,28.49L22,26.94C15.9,23.94 12.98,12.55 12.75,0C11.61,14.3 9.9,22.94 7.01,31.11C7.01,31.11 2.88,40.33 0,53.98L14.67,60.65C17.25,55.61 20.66,48.57 23.36,43.19C24.88,40.15 30.88,37.61 30.88,37.61C30.88,37.61 26.02,32.19 24.87,31C24.28,30.39 23.01,28.49 23.01,28.49Z " /><path id="路径 3" fill-rule="evenodd" style="fill:#12924F" transform="translate(52.101221149742706 1.2275858091601606)  rotate(0 26.58910358641267 101.64329737620864)" opacity="1" d="M6.63 12.83C13.2 23.11 38.96 37.63 51.31 92.17C60.93 148.43 31.32 188.22 9.55 203.29C3.38 200.44 1.6 187.09 1.32 174.65C2.85 154.13 3.29 133.55 2.66 112.99C2.58002 110.375 2.54762 103.157 2.50443 93.5348C2.36941 63.4564 2.12895 9.88713 0 0C1.92 4.42 4.14 8.71 6.63 12.83Z" /></g></g></g></g></svg>